<svg width="123" height="38" viewBox="0 0 123 38" fill="none" xmlns="http://www.w3.org/2000/svg">
<g clip-path="url(#clip0_5174_22003)">
<path d="M77.613 8.98217H73.5475V27.4704H79.5142V10.6543C79.5142 9.72534 78.9354 8.98217 77.613 8.98217ZM51.2766 8.98217H47.2111V27.4704H53.1778V10.6543C53.1778 9.72534 52.6026 8.98217 51.2766 8.98217ZM61.6912 16.6488L69.7205 9.13992H62.5717L53.5672 17.9458C53.5672 17.9458 58.8534 22.6748 60.6845 24.2453C63.2381 26.4327 64.9429 27.4669 68.6506 27.4669C68.7103 27.4669 72.4074 27.4739 72.4074 27.4739L61.4702 18.7661C61.4702 18.7661 60.3618 18.0159 61.6912 16.6488ZM82.0573 18.2403C82.0573 24.091 87.4944 27.4739 93.0647 27.4739H100.792V24.3224H94.9835C94.9519 24.3224 88.0275 24.6239 88.0275 18.2122C88.0275 11.8006 94.9905 11.9233 94.9905 11.9233H100.796V8.89453H93.0682C87.3926 8.89453 82.0608 12.5894 82.0608 18.2368L82.0573 18.2403ZM123 11.9233V8.89453H108.169C105.686 8.89453 104.269 9.04527 104.269 11.0715V27.4669H123V24.3189H110.611V19.7231H122.898V16.5576H110.614V11.9233H123.004H123Z" fill="#322B80"/>
<path d="M47.1725 30.4883H47.5373V31.8554H47.5513C47.6285 31.7468 47.7022 31.6451 47.7758 31.554L48.6422 30.4883H49.0983L48.0705 31.6907L49.1789 33.3243H48.744L47.8144 31.9326L47.5408 32.2446V33.3243H47.176V30.4883H47.1725Z" fill="#6F6F6E"/>
<path d="M50.2172 33.37C49.67 33.37 49.2421 32.9669 49.2421 32.3219C49.2421 31.6418 49.6911 31.2422 50.2523 31.2422C50.8135 31.2422 51.2345 31.6664 51.2345 32.2868C51.2345 33.044 50.7083 33.3736 50.2242 33.3736H50.2207L50.2172 33.37ZM50.2277 33.0931C50.582 33.0931 50.8451 32.7601 50.8451 32.2974C50.8451 31.9538 50.6732 31.5191 50.2348 31.5191C49.7963 31.5191 49.6104 31.9223 49.6104 32.3114C49.6104 32.7566 49.8629 33.0931 50.2207 33.0931H50.2242H50.2277Z" fill="#6F6F6E"/>
<path d="M51.6519 31.9223C51.6519 31.6839 51.6484 31.4771 51.6344 31.2878H51.9571L51.9747 31.6874H51.9887C52.0799 31.414 52.3079 31.2422 52.5569 31.2422C52.5955 31.2422 52.6236 31.2457 52.6587 31.2562V31.5998C52.6166 31.5962 52.578 31.5927 52.5289 31.5927C52.2693 31.5927 52.0834 31.7891 52.0308 32.0625C52.0238 32.1186 52.0167 32.1747 52.0167 32.2378V33.3245H51.6449V31.9223H51.6519Z" fill="#6F6F6E"/>
<path d="M53.1567 32.3667C53.1638 32.868 53.4795 33.0748 53.8513 33.0748C54.1179 33.0748 54.2792 33.0292 54.416 32.9731L54.4827 33.2325C54.3529 33.2921 54.1249 33.3622 53.8022 33.3622C53.1778 33.3622 52.799 32.9451 52.799 32.3351C52.799 31.7251 53.1638 31.2344 53.7601 31.2344C54.4266 31.2344 54.5984 31.8198 54.5984 32.1949C54.5984 32.272 54.5949 32.3281 54.5844 32.3702H53.1567V32.3667ZM54.2406 32.1037C54.2442 31.8724 54.1424 31.5008 53.732 31.5008C53.3532 31.5008 53.1918 31.8443 53.1638 32.1037H54.2406Z" fill="#6F6F6E"/>
<path d="M56.44 32.8372C56.44 33.0125 56.447 33.1878 56.4681 33.3245H56.1348L56.0998 33.0686H56.0857C55.977 33.2298 55.7525 33.37 55.4614 33.37C55.0474 33.37 54.837 33.0791 54.837 32.7846C54.837 32.2938 55.2754 32.0239 56.0612 32.0274V31.9854C56.0612 31.8171 56.0156 31.5086 55.5982 31.5156C55.4052 31.5156 55.2053 31.5717 55.065 31.6664L54.9808 31.4175C55.1492 31.3123 55.3982 31.2422 55.6543 31.2422C56.2822 31.2422 56.433 31.6664 56.433 32.0765V32.8372H56.44ZM56.0787 32.2833C55.6753 32.2763 55.2158 32.3464 55.2158 32.7426C55.2158 32.9879 55.3772 33.0966 55.5596 33.0966C55.8297 33.0966 56.0016 32.9283 56.0612 32.7566C56.0752 32.718 56.0787 32.676 56.0787 32.6374V32.2833Z" fill="#6F6F6E"/>
<path d="M58.2044 30.4883V33.3243H57.8326V30.4883H58.2044Z" fill="#6F6F6E"/>
<path d="M58.7832 31.8381C58.7832 31.6243 58.7797 31.456 58.7657 31.2878H59.0954L59.1165 31.6208H59.1235C59.2252 31.4315 59.4602 31.2422 59.797 31.2422C60.0776 31.2422 60.5161 31.4105 60.5161 32.1081V33.3245H60.1442V32.1501C60.1442 31.8206 60.0215 31.5437 59.6742 31.5437C59.4357 31.5437 59.2463 31.7154 59.1761 31.9223C59.1586 31.9678 59.1515 32.0344 59.1515 32.094V33.321H58.7797V31.8346L58.7832 31.8381Z" fill="#6F6F6E"/>
<path d="M61.0177 32.9498C61.1299 33.0164 61.3263 33.0935 61.5087 33.0935C61.7753 33.0935 61.9016 32.9638 61.9016 32.792C61.9016 32.6203 61.7964 32.5186 61.5263 32.4169C61.1545 32.2837 60.9826 32.0839 60.9826 31.842C60.9826 31.5125 61.2527 31.2461 61.6841 31.2461C61.8911 31.2461 62.07 31.3022 62.1822 31.3723L62.0945 31.6387C62.0139 31.5931 61.8665 31.5195 61.6771 31.5195C61.4596 31.5195 61.3404 31.6457 61.3404 31.7965C61.3404 31.9682 61.4596 32.0454 61.7227 32.147C62.0735 32.2767 62.2559 32.4555 62.2559 32.7605C62.2559 33.1216 61.9753 33.374 61.4982 33.374C61.2737 33.374 61.0703 33.3144 60.9265 33.2302L61.0141 32.9533L61.0177 32.9498Z" fill="#6F6F6E"/>
<path d="M63.1294 30.8008V31.2881H63.659V31.5685H63.1294V32.6657C63.1294 32.9181 63.1995 33.0619 63.4065 33.0619C63.5082 33.0619 63.5678 33.0548 63.6204 33.0373L63.638 33.3178C63.5678 33.3423 63.4521 33.3668 63.3083 33.3668C63.1364 33.3668 62.9961 33.3072 62.9084 33.2126C62.8066 33.1004 62.7645 32.9181 62.7645 32.6797V31.5685H62.4489V31.2881H62.7645V30.913L63.1259 30.8008H63.1294Z" fill="#6F6F6E"/>
<path d="M64.2027 30.9147C64.0624 30.9147 63.9712 30.806 63.9712 30.6763C63.9712 30.5466 64.0694 30.4414 64.2097 30.4414C64.35 30.4414 64.4447 30.5466 64.4447 30.6763C64.4447 30.806 64.3535 30.9147 64.2062 30.9147H64.2027ZM64.0273 33.3265V31.2897H64.3991V33.3265H64.0273Z" fill="#6F6F6E"/>
<path d="M65.4059 30.8008V31.2881H65.9356V31.5685H65.4059V32.6657C65.4059 32.9181 65.4761 33.0619 65.683 33.0619C65.7847 33.0619 65.8444 33.0548 65.897 33.0373L65.9145 33.3178C65.8444 33.3423 65.7286 33.3668 65.5848 33.3668C65.4129 33.3668 65.2726 33.3072 65.1849 33.2126C65.0832 33.1004 65.0411 32.9181 65.0411 32.6797V31.5685H64.7254V31.2881H65.0411V30.913L65.4024 30.8008H65.4059Z" fill="#6F6F6E"/>
<path d="M68.0086 32.768C68.0086 32.9783 68.0121 33.1641 68.0262 33.3219H67.6964L67.6754 32.9888H67.6684C67.5772 33.1536 67.3562 33.3674 66.9949 33.3674C66.6757 33.3674 66.2933 33.1852 66.2933 32.477V31.2852H66.6652V32.4069C66.6652 32.7925 66.7879 33.059 67.1212 33.059C67.3702 33.059 67.5421 32.8872 67.6087 32.7189C67.6298 32.6698 67.6438 32.5997 67.6438 32.5296V31.2852H68.0156V32.7645L68.0086 32.768Z" fill="#6F6F6E"/>
<path d="M69.0189 30.8008V31.2881H69.5486V31.5685H69.0189V32.6657C69.0189 32.9181 69.089 33.0619 69.296 33.0619C69.3977 33.0619 69.4574 33.0548 69.51 33.0373L69.5275 33.3178C69.4574 33.3423 69.3416 33.3668 69.1978 33.3668C69.0259 33.3668 68.8856 33.3072 68.7979 33.2126C68.6962 33.1004 68.6541 32.9181 68.6541 32.6797V31.5685H68.3384V31.2881H68.6541V30.913L69.0154 30.8008H69.0189Z" fill="#6F6F6E"/>
<path d="M70.0993 32.3667C70.1063 32.868 70.422 33.0748 70.7938 33.0748C71.0604 33.0748 71.2218 33.0292 71.3586 32.9731L71.4252 33.2325C71.2955 33.2921 71.0674 33.3622 70.7447 33.3622C70.1204 33.3622 69.7415 32.9451 69.7415 32.3351C69.7415 31.7251 70.1063 31.2344 70.7026 31.2344C71.3691 31.2344 71.541 31.8198 71.541 32.1949C71.541 32.272 71.5375 32.3281 71.527 32.3702H70.0993V32.3667ZM71.1832 32.1037C71.1867 31.8724 71.085 31.5008 70.6746 31.5008C70.2957 31.5008 70.1344 31.8443 70.1063 32.1037H71.1832Z" fill="#6F6F6E"/>
<path d="M72.8248 33.3253V31.5725H72.5442V31.292H72.8248V31.1939C72.8248 30.9064 72.8915 30.647 73.0633 30.4823C73.2036 30.3491 73.3861 30.293 73.5544 30.293C73.6877 30.293 73.8 30.321 73.8701 30.3526L73.8245 30.64C73.7649 30.6155 73.6947 30.5944 73.586 30.5944C73.2738 30.5944 73.1896 30.8714 73.1896 31.1834V31.292H73.6807V31.5725H73.1931V33.3253H72.8213H72.8248Z" fill="#6F6F6E"/>
<path d="M74.7471 33.37C74.1999 33.37 73.7719 32.9669 73.7719 32.3219C73.7719 31.6418 74.2209 31.2422 74.7822 31.2422C75.3434 31.2422 75.7643 31.6664 75.7643 32.2868C75.7643 33.044 75.2382 33.3736 74.7541 33.3736H74.7506L74.7471 33.37ZM74.7611 33.0931C75.1154 33.0931 75.3785 32.7601 75.3785 32.2974C75.3785 31.9538 75.2066 31.5191 74.7681 31.5191C74.3296 31.5191 74.1437 31.9223 74.1437 32.3114C74.1437 32.7566 74.3963 33.0931 74.7541 33.0931H74.7576H74.7611Z" fill="#6F6F6E"/>
<path d="M76.1818 31.9223C76.1818 31.6839 76.1783 31.4771 76.1642 31.2878H76.487L76.5045 31.6874H76.5185C76.6097 31.414 76.8377 31.2422 77.0868 31.2422C77.1254 31.2422 77.1534 31.2457 77.1885 31.2562V31.5998C77.1464 31.5962 77.1078 31.5927 77.0587 31.5927C76.7991 31.5927 76.6132 31.7891 76.5606 32.0625C76.5536 32.1186 76.5466 32.1747 76.5466 32.2378V33.3245H76.1748V31.9223H76.1818Z" fill="#6F6F6E"/>
<path d="M80.3385 33.2392C80.2087 33.3058 79.9351 33.3724 79.5878 33.3724C78.788 33.3724 78.1917 32.8676 78.1917 31.9352C78.1917 31.0027 78.795 30.4453 79.672 30.4453C80.0228 30.4453 80.2473 30.5224 80.3455 30.5715L80.2543 30.8695C80.121 30.8029 79.921 30.7503 79.686 30.7503C79.0195 30.7503 78.5776 31.1745 78.5776 31.9211C78.5776 32.6187 78.9775 33.0604 79.665 33.0604C79.893 33.0604 80.121 33.0149 80.2683 32.9413L80.3385 33.2357V33.2392Z" fill="#6F6F6E"/>
<path d="M82.3905 32.768C82.3905 32.9783 82.394 33.1641 82.4081 33.3219H82.0783L82.0573 32.9888H82.0503C81.9591 33.1536 81.7381 33.3674 81.3768 33.3674C81.0576 33.3674 80.6752 33.1852 80.6752 32.477V31.2852H81.0471V32.4069C81.0471 32.7925 81.1698 33.059 81.5031 33.059C81.7521 33.059 81.924 32.8872 81.9906 32.7189C82.0117 32.6698 82.0257 32.5997 82.0257 32.5296V31.2852H82.3975V32.7645L82.3905 32.768Z" fill="#6F6F6E"/>
<path d="M82.9588 31.9223C82.9588 31.6839 82.9553 31.4771 82.9412 31.2878H83.2639L83.2815 31.6874H83.2955C83.3867 31.414 83.6147 31.2422 83.8638 31.2422C83.9024 31.2422 83.9304 31.2457 83.9655 31.2562V31.5998C83.9234 31.5962 83.8848 31.5927 83.8357 31.5927C83.5761 31.5927 83.3902 31.7891 83.3376 32.0625C83.3306 32.1186 83.3236 32.1747 83.3236 32.2378V33.3245H82.9517V31.9223H82.9588Z" fill="#6F6F6E"/>
<path d="M84.3023 31.9223C84.3023 31.6839 84.2988 31.4771 84.2847 31.2878H84.6074L84.625 31.6874H84.639C84.7302 31.414 84.9582 31.2422 85.2073 31.2422C85.2459 31.2422 85.2739 31.2457 85.309 31.2562V31.5998C85.2669 31.5962 85.2283 31.5927 85.1792 31.5927C84.9196 31.5927 84.7337 31.7891 84.6811 32.0625C84.6741 32.1186 84.6671 32.1747 84.6671 32.2378V33.3245H84.2953V31.9223H84.3023Z" fill="#6F6F6E"/>
<path d="M85.8176 30.9147C85.6773 30.9147 85.5861 30.806 85.5861 30.6763C85.5861 30.5466 85.6843 30.4414 85.8246 30.4414C85.965 30.4414 86.0597 30.5466 86.0597 30.6763C86.0597 30.806 85.9685 30.9147 85.8211 30.9147H85.8176ZM85.6422 33.3265V31.2897H86.0141V33.3265H85.6422Z" fill="#6F6F6E"/>
<path d="M88.0275 33.2505C87.9293 33.296 87.7153 33.3696 87.4417 33.3696C86.8279 33.3696 86.428 32.9525 86.428 32.325C86.428 31.6975 86.8559 31.2383 87.5224 31.2383C87.7399 31.2383 87.9363 31.2944 88.0345 31.347L87.9503 31.6274C87.8627 31.5818 87.7223 31.5292 87.5224 31.5292C87.0559 31.5292 86.8033 31.8798 86.8033 32.304C86.8033 32.7737 87.105 33.0647 87.5119 33.0647C87.7223 33.0647 87.8627 33.0156 87.9679 32.9665L88.031 33.2434L88.0275 33.2505Z" fill="#6F6F6E"/>
<path d="M90.1146 32.768C90.1146 32.9783 90.1181 33.1641 90.1321 33.3219H89.8024L89.7814 32.9888H89.7743C89.6831 33.1536 89.4621 33.3674 89.1008 33.3674C88.7816 33.3674 88.3993 33.1852 88.3993 32.477V31.2852H88.7711V32.4069C88.7711 32.7925 88.8939 33.059 89.2271 33.059C89.4762 33.059 89.6481 32.8872 89.7147 32.7189C89.7358 32.6698 89.7498 32.5997 89.7498 32.5296V31.2852H90.1216V32.7645L90.1146 32.768Z" fill="#6F6F6E"/>
<path d="M90.6794 30.3398H91.0512V33.3266H90.6794V30.3398Z" fill="#6F6F6E"/>
<path d="M93.3172 32.768C93.3172 32.9783 93.3207 33.1641 93.3348 33.3219H93.005L92.984 32.9888H92.977C92.8858 33.1536 92.6648 33.3674 92.3035 33.3674C91.9843 33.3674 91.6019 33.1852 91.6019 32.477V31.2852H91.9738V32.4069C91.9738 32.7925 92.0965 33.059 92.4298 33.059C92.6788 33.059 92.8507 32.8872 92.9173 32.7189C92.9384 32.6698 92.9524 32.5997 92.9524 32.5296V31.2852H93.3242V32.7645L93.3172 32.768Z" fill="#6F6F6E"/>
<path d="M93.882 31.8377C93.882 31.6239 93.875 31.4556 93.8644 31.2874H94.1872L94.2047 31.6169H94.2187C94.331 31.4241 94.5204 31.2418 94.8642 31.2418C95.1378 31.2418 95.3482 31.4101 95.4359 31.6484H95.4429C95.5061 31.5292 95.5903 31.4451 95.6745 31.382C95.7972 31.2909 95.927 31.2383 96.1199 31.2383C96.3935 31.2383 96.7934 31.4136 96.7934 32.1217V33.3206H96.4321V32.1672C96.4321 31.7711 96.2848 31.5398 95.9901 31.5398C95.7762 31.5398 95.6148 31.694 95.5482 31.8728C95.5306 31.9289 95.5201 31.9955 95.5201 32.0586V33.3206H95.1588V32.1006C95.1588 31.7711 95.015 31.5398 94.7344 31.5398C94.5064 31.5398 94.3345 31.7255 94.2749 31.9113C94.2538 31.9674 94.2468 32.0305 94.2468 32.0936V33.3206H93.8855V31.8342L93.882 31.8377Z" fill="#6F6F6E"/>
<path d="M99.6207 32.8372C99.6207 33.0125 99.6277 33.1878 99.6488 33.3245H99.3155L99.2804 33.0686H99.2664C99.1577 33.2298 98.9332 33.37 98.642 33.37C98.2281 33.37 98.0176 33.0791 98.0176 32.7846C98.0176 32.2938 98.4561 32.0239 99.2419 32.0274V31.9854C99.2419 31.8171 99.1963 31.5086 98.7788 31.5156C98.5859 31.5156 98.386 31.5717 98.2456 31.6664L98.1615 31.4175C98.3298 31.3123 98.5789 31.2422 98.835 31.2422C99.4628 31.2422 99.6137 31.6664 99.6137 32.0765V32.8372H99.6207ZM99.2594 32.2833C98.856 32.2763 98.3965 32.3464 98.3965 32.7426C98.3965 32.9879 98.5578 33.0966 98.7402 33.0966C99.0103 33.0966 99.1822 32.9283 99.2419 32.7566C99.2559 32.718 99.2594 32.676 99.2594 32.6374V32.2833Z" fill="#6F6F6E"/>
<path d="M100.164 31.8381C100.164 31.6243 100.161 31.456 100.147 31.2878H100.477L100.498 31.6208H100.505C100.606 31.4315 100.841 31.2422 101.178 31.2422C101.459 31.2422 101.897 31.4105 101.897 32.1081V33.3245H101.525V32.1501C101.525 31.8206 101.403 31.5437 101.055 31.5437C100.817 31.5437 100.627 31.7154 100.557 31.9223C100.54 31.9678 100.533 32.0344 100.533 32.094V33.321H100.161V31.8346L100.164 31.8381Z" fill="#6F6F6E"/>
<path d="M104.209 30.3398V32.8007C104.209 32.983 104.212 33.1863 104.226 33.3266H103.893L103.876 32.9725H103.869C103.756 33.2004 103.511 33.3721 103.178 33.3721C102.686 33.3721 102.301 32.955 102.301 32.338C102.297 31.6579 102.722 31.2443 103.213 31.2443C103.528 31.2443 103.739 31.3915 103.826 31.5528H103.834V30.3398H104.205H104.209ZM103.837 32.1171C103.837 32.0681 103.834 32.0085 103.819 31.9559C103.763 31.7245 103.563 31.5317 103.286 31.5317C102.904 31.5317 102.676 31.8683 102.676 32.3135C102.676 32.7306 102.883 33.0707 103.279 33.0707C103.528 33.0707 103.756 32.9024 103.823 32.629C103.837 32.5799 103.841 32.5273 103.841 32.4677V32.1136L103.837 32.1171Z" fill="#6F6F6E"/>
<path d="M107.092 31.9961H105.994V33.0197H107.222V33.3282H105.622V30.4922H107.159V30.8007H105.994V31.6981H107.092V31.9996V31.9961Z" fill="#6F6F6E"/>
<path d="M107.745 31.2891L108.145 32.4284C108.211 32.6177 108.267 32.7859 108.309 32.9542H108.323C108.369 32.7859 108.429 32.6177 108.495 32.4284L108.892 31.2891H109.278L108.478 33.3258H108.124L107.348 31.2891H107.745Z" fill="#6F6F6E"/>
<path d="M110.951 32.8372C110.951 33.0125 110.958 33.1878 110.979 33.3245H110.646L110.611 33.0686H110.596C110.488 33.2298 110.263 33.37 109.972 33.37C109.558 33.37 109.348 33.0791 109.348 32.7846C109.348 32.2938 109.786 32.0239 110.572 32.0274V31.9854C110.572 31.8171 110.526 31.5086 110.109 31.5156C109.916 31.5156 109.716 31.5717 109.576 31.6664L109.492 31.4175C109.66 31.3123 109.909 31.2422 110.165 31.2422C110.793 31.2422 110.944 31.6664 110.944 32.0765V32.8372H110.951ZM110.589 32.2833C110.186 32.2763 109.727 32.3464 109.727 32.7426C109.727 32.9879 109.888 33.0966 110.07 33.0966C110.34 33.0966 110.512 32.9283 110.572 32.7566C110.586 32.718 110.589 32.676 110.589 32.6374V32.2833Z" fill="#6F6F6E"/>
<path d="M111.495 30.3398H111.866V33.3266H111.495V30.3398Z" fill="#6F6F6E"/>
<path d="M114.132 32.768C114.132 32.9783 114.136 33.1641 114.15 33.3219H113.82L113.799 32.9888H113.792C113.701 33.1536 113.48 33.3674 113.119 33.3674C112.799 33.3674 112.417 33.1852 112.417 32.477V31.2852H112.789V32.4069C112.789 32.7925 112.912 33.059 113.245 33.059C113.494 33.059 113.666 32.8872 113.732 32.7189C113.754 32.6698 113.768 32.5997 113.768 32.5296V31.2852H114.139V32.7645L114.132 32.768Z" fill="#6F6F6E"/>
<path d="M116.132 32.8372C116.132 33.0125 116.139 33.1878 116.16 33.3245H115.827L115.791 33.0686H115.777C115.669 33.2298 115.444 33.37 115.153 33.37C114.739 33.37 114.529 33.0791 114.529 32.7846C114.529 32.2938 114.967 32.0239 115.753 32.0274V31.9854C115.753 31.8171 115.707 31.5086 115.29 31.5156C115.097 31.5156 114.897 31.5717 114.757 31.6664L114.673 31.4175C114.841 31.3123 115.09 31.2422 115.346 31.2422C115.974 31.2422 116.125 31.6664 116.125 32.0765V32.8372H116.132ZM115.77 32.2833C115.367 32.2763 114.908 32.3464 114.908 32.7426C114.908 32.9879 115.069 33.0966 115.251 33.0966C115.521 33.0966 115.693 32.9283 115.753 32.7566C115.767 32.718 115.77 32.676 115.77 32.6374V32.2833Z" fill="#6F6F6E"/>
<path d="M117.107 30.8008V31.2881H117.637V31.5685H117.107V32.6657C117.107 32.9181 117.177 33.0619 117.384 33.0619C117.486 33.0619 117.545 33.0548 117.598 33.0373L117.616 33.3178C117.545 33.3423 117.43 33.3668 117.286 33.3668C117.114 33.3668 116.974 33.3072 116.886 33.2126C116.784 33.1004 116.742 32.9181 116.742 32.6797V31.5685H116.426V31.2881H116.742V30.913L117.103 30.8008H117.107Z" fill="#6F6F6E"/>
<path d="M118.18 30.9147C118.04 30.9147 117.949 30.806 117.949 30.6763C117.949 30.5466 118.047 30.4414 118.187 30.4414C118.328 30.4414 118.422 30.5466 118.422 30.6763C118.422 30.806 118.331 30.9147 118.184 30.9147H118.18ZM118.001 33.3265V31.2897H118.373V33.3265H118.001Z" fill="#6F6F6E"/>
<path d="M119.766 33.37C119.219 33.37 118.791 32.9669 118.791 32.3219C118.791 31.6418 119.24 31.2422 119.801 31.2422C120.362 31.2422 120.783 31.6664 120.783 32.2868C120.783 33.044 120.257 33.3736 119.773 33.3736H119.769L119.766 33.37ZM119.78 33.0931C120.134 33.0931 120.397 32.7601 120.397 32.2974C120.397 31.9538 120.225 31.5191 119.787 31.5191C119.348 31.5191 119.162 31.9223 119.162 32.3114C119.162 32.7566 119.415 33.0931 119.773 33.0931H119.776H119.78Z" fill="#6F6F6E"/>
<path d="M121.197 31.8381C121.197 31.6243 121.193 31.456 121.179 31.2878H121.509L121.53 31.6208H121.537C121.639 31.4315 121.874 31.2422 122.211 31.2422C122.491 31.2422 122.93 31.4105 122.93 32.1081V33.3245H122.558V32.1501C122.558 31.8206 122.435 31.5437 122.088 31.5437C121.849 31.5437 121.66 31.7154 121.59 31.9223C121.572 31.9678 121.565 32.0344 121.565 32.094V33.321H121.193V31.8346L121.197 31.8381Z" fill="#6F6F6E"/>
<path d="M39.9114 4.27091C38.9748 2.31482 37.4594 0.961686 35.5337 0.358734C29.0969 -1.65344 19.4997 5.00357 14.1363 15.2047C10.6846 21.767 9.6814 28.5993 11.516 33.0338C12.435 35.2528 14.0205 36.7707 16.1076 37.4228C17.5528 37.875 19.4891 38.3167 21.6534 37.6857L21.7692 37.6506L21.7131 33.0759L21.5271 33.1109C20.2643 33.3563 19.1033 33.3178 18.0755 32.9953C16.49 32.4975 15.2798 31.3371 14.5747 29.6405C14.0977 28.4871 13.8662 27.127 13.8662 25.6301C13.8662 22.5523 14.8519 18.91 16.7215 15.3484C17.0688 14.6859 17.4581 14.0233 17.865 13.3748C18.1457 13.6552 25.8452 21.3919 25.8452 21.3919L28.8794 17.7216C28.8794 17.7216 19.9557 10.9595 19.6961 10.7632C24.1404 5.11224 29.7564 2.14305 33.7061 3.3805C35.0145 3.79065 35.9827 4.62848 36.5895 5.87294C37.8418 8.446 37.47 12.7859 35.5723 17.7777L35.5161 17.9285L39.052 19.215L39.1081 19.0713C41.3671 13.3222 41.6582 7.92718 39.9044 4.27442L39.9114 4.27091Z" fill="#007AC0"/>
<path d="M38.1821 20.8374L38.147 20.7778L33.4781 19.8173L33.6325 20.1118C34.9304 22.6147 35.0636 24.2027 34.1025 25.7627C31.6822 29.6994 23.6423 28.9212 14.9817 23.9153C8.79044 20.3361 4.36012 15.814 3.42355 12.1086C3.07277 10.7205 3.21308 9.49702 3.84799 8.4699C5.72465 5.41307 10.4952 5.27285 17.6405 8.05975L17.7914 8.11935L18.3982 6.39813L18.2544 6.34204C9.30608 2.87156 3.4481 3.26068 0.845337 7.49186C-0.0421295 8.93964 -0.231549 10.7064 0.284093 12.7431C1.56443 17.8086 6.92781 23.5928 14.2731 27.838C24.821 33.9341 35.9616 34.7299 39.1046 29.6118C40.4796 27.3752 40.1534 24.2588 38.1821 20.8374Z" fill="#B6C932"/>
</g>
<defs>
<clipPath id="clip0_5174_22003">
<rect width="123" height="38" fill="white"/>
</clipPath>
</defs>
</svg>
