<svg width="227" height="23" viewBox="0 0 227 23" fill="none" xmlns="http://www.w3.org/2000/svg">
<path d="M13.2891 2.72656V5.09375H0.632812V2.72656H5.48438V0.710938H8.46094V2.72656H13.2891ZM6.96094 5.77344C10.0547 5.77344 12.2109 7.36719 12.2109 9.71094C12.2109 12.0547 10.0547 13.6484 6.96094 13.6484C3.86719 13.6484 1.66406 12.0547 1.66406 9.71094C1.66406 7.36719 3.86719 5.77344 6.96094 5.77344ZM6.96094 8.02344C5.53125 8.02344 4.57031 8.60938 4.59375 9.71094C4.57031 10.7891 5.53125 11.3516 6.96094 11.3516C8.39062 11.3516 9.375 10.7891 9.375 9.71094C9.375 8.60938 8.39062 8.02344 6.96094 8.02344ZM17.5547 0.828125V6.35938H20.4375V8.79688H17.5547V14.2109H14.5547V0.828125H17.5547ZM17.5547 15.1016V22.1562H14.5547V17.4922H3.1875V15.1016H17.5547ZM27.3281 1.74219C30.0586 1.71875 32.2266 3.27734 32.8125 5.5625H36.375V0.828125H39.3516V12.2891H36.375V7.95312H32.8359C32.2734 10.2969 30.082 11.8906 27.3281 11.8906C24.0469 11.8906 21.6328 9.75781 21.6562 6.78125C21.6328 3.85156 24.0469 1.71875 27.3281 1.74219ZM27.3281 4.22656C25.6641 4.20312 24.4688 5.1875 24.4922 6.78125C24.4688 8.375 25.6641 9.38281 27.3281 9.38281C28.9453 9.38281 30.1172 8.375 30.1172 6.78125C30.1172 5.1875 28.9453 4.20312 27.3281 4.22656ZM28.0781 13.2266V15.2891H36.375V13.2266H39.3516V21.9219H25.125V13.2266H28.0781ZM28.0781 19.5078H36.375V17.5859H28.0781V19.5078ZM50.1797 3.73438C50.1562 6.59375 51.6328 9.21875 55.0547 10.2734L53.4844 12.6172C51.1875 11.8203 49.6289 10.3438 48.75 8.42188C47.7891 10.6484 46.0664 12.4062 43.5 13.2734L41.9297 10.8828C45.5859 9.71094 47.1328 6.85156 47.1562 3.875V1.92969H50.1797V3.73438ZM60.0938 0.828125V13.3203H57.1172V7.17969H53.1094V4.74219H57.1172V0.828125H60.0938ZM52.8047 13.8828C57.3516 13.8828 60.1406 15.4062 60.1641 18.0312C60.1406 20.6562 57.3516 22.1562 52.8047 22.1562C48.2578 22.1562 45.4688 20.6562 45.4688 18.0312C45.4688 15.4062 48.2578 13.8828 52.8047 13.8828ZM52.8047 16.2031C49.9688 16.2031 48.4453 16.8125 48.4453 18.0312C48.4453 19.2031 49.9688 19.8359 52.8047 19.8359C55.6406 19.8359 57.1875 19.2031 57.1875 18.0312C57.1875 16.8125 55.6406 16.2031 52.8047 16.2031ZM75.6797 2.96094V5.28125H71.4609C71.5195 6.95703 73.0312 8.50391 76.1953 9.07812L75.0234 11.375C72.6094 10.9062 70.9453 9.83984 70.0078 8.39844C69.0586 9.98047 67.3594 11.1758 64.8516 11.6797L63.6328 9.35938C66.8555 8.76172 68.3555 7.08594 68.4375 5.28125H64.1953V2.96094H68.4609V0.875H71.4609V2.96094H75.6797ZM80.8359 0.851562V22.1562H77.8828V0.851562H80.8359ZM62.9062 12.5938C66.8438 12.5938 72.0938 12.5703 76.5938 11.9844L76.7812 14.1406C75.0234 14.4453 73.2188 14.6562 71.4375 14.7734V21.5H68.4609V14.9375C66.6094 15.0078 64.8398 15.0195 63.2812 15.0078L62.9062 12.5938ZM100.992 10.3672V12.7344H94.8047V17.2812H103.125V19.7188H83.6016V17.2812H91.8281V12.7344H85.8984V2.32812H100.828V4.71875H88.8984V10.3672H100.992ZM116.25 2.23438V4.625H114.492V10.3203C115.207 10.2617 115.91 10.1914 116.578 10.1094L116.695 12.3125C112.688 12.9922 108.023 13.0625 104.648 13.0625L104.344 10.6484L106.617 10.625V4.625H104.883V2.23438H116.25ZM122.32 0.828125V13.8594H119.344V10.6719H116.719V8.28125H119.344V6.64062H116.719V4.29688H119.344V0.828125H122.32ZM115.031 14.1875C119.625 14.2109 122.367 15.6406 122.391 18.1953C122.367 20.6797 119.625 22.1562 115.031 22.1562C110.461 22.1562 107.695 20.6797 107.695 18.1953C107.695 15.6406 110.461 14.2109 115.031 14.1875ZM115.031 16.4844C112.172 16.4844 110.672 17.0234 110.672 18.1953C110.672 19.3203 112.172 19.8828 115.031 19.8828C117.891 19.8828 119.414 19.3203 119.414 18.1953C119.414 17.0234 117.891 16.4844 115.031 16.4844ZM109.5 10.5547L111.633 10.4844V4.625H109.5V10.5547ZM141.914 0.828125V9.00781H144.938V11.4688H141.914V22.1094H138.914V0.828125H141.914ZM136.219 3.00781C136.195 9.38281 133.711 14.9141 126.539 18.4297L124.852 16.1328C129.902 13.6016 132.609 10.2031 133.172 5.44531H126.07V3.00781H136.219Z" fill="#408DED"/>
<path d="M154.102 6.64062C154.102 10.0859 155.859 13.7656 159.445 15.2656L157.828 17.6094C155.309 16.543 153.574 14.4219 152.625 11.8203C151.652 14.6445 149.883 16.9883 147.375 18.1484L145.664 15.7812C149.203 14.2109 151.031 10.25 151.031 6.64062V5.32812H146.508V2.89062H158.555V5.32812H154.102V6.64062ZM163.688 0.828125V22.1562H160.664V0.828125H163.688ZM184.641 0.851562V16.9531H181.641V15.2656H177.562V13.2266H181.641V0.851562H184.641ZM185.109 19.3906V21.7812H169.219V15.4062H172.195V12.5703C170.285 12.6523 168.469 12.6641 166.852 12.6641L166.5 10.2969C170.414 10.2734 175.688 10.2266 180.188 9.66406L180.352 11.7969C178.664 12.0781 176.918 12.2773 175.195 12.4062V16.4609H172.195V19.3906H185.109ZM173.438 1.57812C176.531 1.55469 178.758 3.125 178.758 5.39844C178.758 7.67188 176.531 9.14844 173.438 9.14844C170.273 9.14844 168.07 7.67188 168.07 5.39844C168.07 3.125 170.25 1.55469 173.438 1.57812ZM173.438 3.75781C171.914 3.75781 170.883 4.34375 170.906 5.39844C170.883 6.42969 171.914 6.99219 173.438 6.99219C174.867 6.99219 175.898 6.42969 175.922 5.39844C175.898 4.34375 174.867 3.75781 173.438 3.75781ZM206.836 17.2812V19.7891H187.312V17.2812H195.516V13.4375H188.93V11.0938H191.789V5H188.836V2.60938H205.195V5H202.195V11.0938H205.102V13.4375H198.492V17.2812H206.836ZM194.789 11.0938H199.242V5H194.789V11.0938ZM218.953 2V4.34375H212.039V5.65625H218.32V7.88281H212.039V9.33594C215.18 9.33594 217.289 9.28906 219.727 8.91406L219.938 11.2578C217.102 11.6797 214.688 11.7031 210.727 11.7031H209.062V2H218.953ZM226.031 0.828125V12.125H223.055V7.71875H219.586V5.375H223.055V0.828125H226.031ZM226.031 12.8984V18.5H214.852V19.7188H226.664V22.0156H211.852V16.3438H223.055V15.1953H211.828V12.8984H226.031Z" fill="#111111"/>
</svg>
