<svg width="248" height="160" viewBox="0 0 248 160" fill="none" xmlns="http://www.w3.org/2000/svg">
<g clip-path="url(#clip0_5054_7213)">
<path d="M0 16C0 7.16345 7.16344 0 16 0H232C240.837 0 248 7.16344 248 16V144C248 152.837 240.837 160 232 160H16C7.16344 160 0 152.837 0 144V16Z" fill="#BB94FF"/>
<path d="M167.149 66.7295L99.4739 246.524C99.2387 247.14 99.0035 247.727 98.7977 248.343L98.3861 249.429H98.4449C96.828 254.798 96.5046 260.607 97.7982 266.475C101.826 284.695 119.876 296.226 138.162 292.206C150.598 289.478 159.888 280.265 163.328 268.91L228.004 96.3041C228.004 96.3041 215.657 57.3114 199.635 54.2894C188.581 52.2063 177.527 50.5046 167.149 66.7002V66.7295Z" fill="url(#paint0_linear_5054_7213)"/>
<path d="M218.517 95.6602L423.96 95.7317C423.96 95.7317 424.282 95.7317 424.425 95.7317H429.213V95.3742C432.286 94.9809 435.36 94.2301 438.361 93.086C459.588 85.1132 470.345 61.4449 462.376 40.2078C456.193 23.7258 440.541 13.5363 423.924 13.5363V13L216.766 13.3933C215.98 13.3933 215.194 13.3933 214.372 13.3933H212.978V13.4648C206.189 13.8938 199.399 16.039 193.288 20.0075C193.288 20.0075 181.531 24.9414 173.955 45.964C166.415 66.9866 137.005 146 137.005 146C137.005 146 176.492 93.0503 218.517 95.6602Z" fill="url(#paint1_linear_5054_7213)"/>
</g>
<defs>
<linearGradient id="paint0_linear_5054_7213" x1="195" y1="82.4985" x2="228" y2="156.499" gradientUnits="userSpaceOnUse">
<stop stop-color="#BB94FF"/>
<stop offset="1" stop-color="#A36EFF"/>
</linearGradient>
<linearGradient id="paint1_linear_5054_7213" x1="283.5" y1="13" x2="303.454" y2="128.123" gradientUnits="userSpaceOnUse">
<stop stop-color="#C5A4FF"/>
<stop offset="1" stop-color="#9D65FF" stop-opacity="0.501961"/>
</linearGradient>
<clipPath id="clip0_5054_7213">
<path d="M0 16C0 7.16345 7.16344 0 16 0H232C240.837 0 248 7.16344 248 16V144C248 152.837 240.837 160 232 160H16C7.16344 160 0 152.837 0 144V16Z" fill="white"/>
</clipPath>
</defs>
</svg>
