<svg width="20" height="20" viewBox="0 0 20 20" fill="none" xmlns="http://www.w3.org/2000/svg">
<path d="M8.33334 15.8317C8.13863 15.832 7.94993 15.7642 7.8 15.64C7.62958 15.4987 7.52238 15.2954 7.50206 15.075C7.48173 14.8545 7.54996 14.6351 7.69167 14.465L11.425 9.99833L7.825 5.52333C7.6852 5.35117 7.61978 5.13038 7.64324 4.90984C7.6667 4.68931 7.7771 4.48722 7.95 4.34833C8.12431 4.19496 8.35469 4.12126 8.58565 4.14499C8.81661 4.16872 9.02719 4.28772 9.16667 4.47333L13.1917 9.47333C13.4444 9.78083 13.4444 10.2242 13.1917 10.5317L9.025 15.5317C8.85545 15.7362 8.59853 15.8476 8.33334 15.8317Z" fill="#111111"/>
</svg>
