<svg width="16" height="16" viewBox="0 0 16 16" fill="none" xmlns="http://www.w3.org/2000/svg">
<path d="M8.00016 10.334C7.84439 10.3343 7.69343 10.2801 7.57349 10.1807L3.57349 6.84735C3.28999 6.61171 3.25118 6.19086 3.48682 5.90735C3.72247 5.62385 4.14332 5.58505 4.42682 5.82069L8.00016 8.80735L11.5735 5.92735C11.7112 5.81551 11.8879 5.76317 12.0643 5.78194C12.2407 5.80071 12.4024 5.88903 12.5135 6.02735C12.6369 6.16593 12.697 6.34967 12.6793 6.53439C12.6616 6.71911 12.5677 6.88809 12.4202 7.00069L8.42016 10.2207C8.29677 10.3044 8.14889 10.3443 8.00016 10.334Z" fill="#111111"/>
</svg>
