<svg width="20" height="20" viewBox="0 0 20 20" fill="none" xmlns="http://www.w3.org/2000/svg">
<path d="M11.6667 4.16834C11.8614 4.16796 12.0501 4.23577 12.2 4.36001C12.3704 4.5013 12.4776 4.70459 12.4979 4.92503C12.5183 5.14547 12.45 5.36494 12.3083 5.53501L8.575 10.0017L12.175 14.4767C12.3148 14.6488 12.3802 14.8696 12.3568 15.0902C12.3333 15.3107 12.2229 15.5128 12.05 15.6517C11.8757 15.805 11.6453 15.8787 11.4144 15.855C11.1834 15.8313 10.9728 15.7123 10.8333 15.5267L6.80833 10.5267C6.55556 10.2192 6.55556 9.77584 6.80833 9.46834L10.975 4.46834C11.1445 4.2638 11.4015 4.15237 11.6667 4.16834Z" fill="#111111"/>
</svg>
