<svg width="40" height="40" viewBox="0 0 40 40" fill="none" xmlns="http://www.w3.org/2000/svg">
<g clip-path="url(#clip0_5126_11561)">
<path d="M13 15C13.5304 15 14.0391 14.7893 14.4142 14.4142C14.7893 14.0391 15 13.5304 15 13C15 12.4696 14.7893 11.9609 14.4142 11.5858C14.0391 11.2107 13.5304 11 13 11C12.4696 11 11.9609 11.2107 11.5858 11.5858C11.2107 11.9609 11 12.4696 11 13C11 13.5304 11.2107 14.0391 11.5858 14.4142C11.9609 14.7893 12.4696 15 13 15ZM20 15C20.5304 15 21.0391 14.7893 21.4142 14.4142C21.7893 14.0391 22 13.5304 22 13C22 12.4696 21.7893 11.9609 21.4142 11.5858C21.0391 11.2107 20.5304 11 20 11C19.4696 11 18.9609 11.2107 18.5858 11.5858C18.2107 11.9609 18 12.4696 18 13C18 13.5304 18.2107 14.0391 18.5858 14.4142C18.9609 14.7893 19.4696 15 20 15ZM27 15C27.5304 15 28.0391 14.7893 28.4142 14.4142C28.7893 14.0391 29 13.5304 29 13C29 12.4696 28.7893 11.9609 28.4142 11.5858C28.0391 11.2107 27.5304 11 27 11C26.4696 11 25.9609 11.2107 25.5858 11.5858C25.2107 11.9609 25 12.4696 25 13C25 13.5304 25.2107 14.0391 25.5858 14.4142C25.9609 14.7893 26.4696 15 27 15ZM13 22C13.5304 22 14.0391 21.7893 14.4142 21.4142C14.7893 21.0391 15 20.5304 15 20C15 19.4696 14.7893 18.9609 14.4142 18.5858C14.0391 18.2107 13.5304 18 13 18C12.4696 18 11.9609 18.2107 11.5858 18.5858C11.2107 18.9609 11 19.4696 11 20C11 20.5304 11.2107 21.0391 11.5858 21.4142C11.9609 21.7893 12.4696 22 13 22ZM20 22C20.5304 22 21.0391 21.7893 21.4142 21.4142C21.7893 21.0391 22 20.5304 22 20C22 19.4696 21.7893 18.9609 21.4142 18.5858C21.0391 18.2107 20.5304 18 20 18C19.4696 18 18.9609 18.2107 18.5858 18.5858C18.2107 18.9609 18 19.4696 18 20C18 20.5304 18.2107 21.0391 18.5858 21.4142C18.9609 21.7893 19.4696 22 20 22ZM27 22C27.5304 22 28.0391 21.7893 28.4142 21.4142C28.7893 21.0391 29 20.5304 29 20C29 19.4696 28.7893 18.9609 28.4142 18.5858C28.0391 18.2107 27.5304 18 27 18C26.4696 18 25.9609 18.2107 25.5858 18.5858C25.2107 18.9609 25 19.4696 25 20C25 20.5304 25.2107 21.0391 25.5858 21.4142C25.9609 21.7893 26.4696 22 27 22ZM13 29C13.5304 29 14.0391 28.7893 14.4142 28.4142C14.7893 28.0391 15 27.5304 15 27C15 26.4696 14.7893 25.9609 14.4142 25.5858C14.0391 25.2107 13.5304 25 13 25C12.4696 25 11.9609 25.2107 11.5858 25.5858C11.2107 25.9609 11 26.4696 11 27C11 27.5304 11.2107 28.0391 11.5858 28.4142C11.9609 28.7893 12.4696 29 13 29ZM20 29C20.5304 29 21.0391 28.7893 21.4142 28.4142C21.7893 28.0391 22 27.5304 22 27C22 26.4696 21.7893 25.9609 21.4142 25.5858C21.0391 25.2107 20.5304 25 20 25C19.4696 25 18.9609 25.2107 18.5858 25.5858C18.2107 25.9609 18 26.4696 18 27C18 27.5304 18.2107 28.0391 18.5858 28.4142C18.9609 28.7893 19.4696 29 20 29ZM27 29C27.5304 29 28.0391 28.7893 28.4142 28.4142C28.7893 28.0391 29 27.5304 29 27C29 26.4696 28.7893 25.9609 28.4142 25.5858C28.0391 25.2107 27.5304 25 27 25C26.4696 25 25.9609 25.2107 25.5858 25.5858C25.2107 25.9609 25 26.4696 25 27C25 27.5304 25.2107 28.0391 25.5858 28.4142C25.9609 28.7893 26.4696 29 27 29Z" fill="#111111"/>
</g>
<defs>
<clipPath id="clip0_5126_11561">
<rect width="24" height="24" fill="white" transform="translate(8 8)"/>
</clipPath>
</defs>
</svg>
