<svg width="20" height="20" viewBox="0 0 20 20" fill="none" xmlns="http://www.w3.org/2000/svg">
<path d="M10.0003 12.9164C9.80558 12.9168 9.61688 12.849 9.46696 12.7248L4.46696 8.55809C4.11257 8.26354 4.06407 7.73748 4.35862 7.38309C4.65317 7.02871 5.17924 6.98021 5.53362 7.27476L10.0003 11.0081L14.467 7.40809C14.6391 7.26829 14.8599 7.20287 15.0804 7.22633C15.301 7.24979 15.5031 7.36019 15.642 7.53309C15.7962 7.70631 15.8713 7.93599 15.8492 8.16689C15.8271 8.39779 15.7097 8.60902 15.5253 8.74976L10.5253 12.7748C10.3711 12.8794 10.1862 12.9292 10.0003 12.9164Z" fill="#637381"/>
</svg>
