<svg width="40" height="40" viewBox="0 0 40 40" fill="none" xmlns="http://www.w3.org/2000/svg">
<path d="M36.4997 19.9995C36.4997 19.8161 36.3997 19.6328 36.3497 19.4495C36.2725 19.126 36.1723 18.8086 36.0497 18.4995C35.9663 18.2995 35.8497 18.0995 35.7497 17.8828C35.6497 17.6661 35.4997 17.3828 35.3497 17.1495C35.1997 16.9161 34.9997 16.7995 34.9997 16.6661C34.9997 16.5328 34.6663 16.2495 34.483 16.0495C34.2997 15.8495 34.133 15.7161 33.9497 15.5495L33.333 14.9995L32.733 14.5995C32.4975 14.4553 32.2525 14.3273 31.9997 14.2161L31.3497 13.9161C31.0774 13.8153 30.7991 13.7318 30.5163 13.6661C30.2923 13.6003 30.064 13.5501 29.833 13.5161L29.4497 13.3328C28.7696 11.3679 27.494 9.66384 25.8002 8.45775C24.1065 7.25166 22.0789 6.60352 19.9997 6.60352C17.9204 6.60352 15.8928 7.25166 14.1991 8.45775C12.5054 9.66384 11.2297 11.3679 10.5497 13.3328L10.2497 13.4161C10.0187 13.4501 9.79034 13.5003 9.56634 13.5661C9.28357 13.6318 9.00524 13.7153 8.73301 13.8161L8.08301 14.1161C7.83021 14.2273 7.58521 14.3553 7.34967 14.4995L6.74968 14.9995L6.13301 15.5161C5.94967 15.6828 5.76634 15.8328 5.59967 16.0161C5.43301 16.1995 5.24967 16.4328 5.08301 16.6328C4.91634 16.8328 4.78301 17.0161 4.64967 17.2328C4.51634 17.4495 4.38301 17.7161 4.24967 17.9661C4.11634 18.2161 4.03301 18.3828 3.94967 18.5828C3.82708 18.8919 3.72682 19.2094 3.64967 19.5328C3.64967 19.7161 3.53301 19.8995 3.49967 20.0828C3.39594 20.6044 3.34015 21.1344 3.33301 21.6661C3.34082 22.175 3.39099 22.6823 3.48301 23.1828C3.48301 23.3495 3.56634 23.4995 3.59967 23.6661C3.68205 23.9936 3.7822 24.3163 3.89967 24.6328L4.09967 25.1161C4.24639 25.4375 4.41339 25.7493 4.59967 26.0495L4.83301 26.4161C4.85699 26.4629 4.88486 26.5075 4.91634 26.5495L4.99967 26.6661C5.7759 27.7011 6.78243 28.5411 7.93956 29.1197C9.09669 29.6983 10.3726 29.9995 11.6663 29.9995H16.6663V27.7161C16.1599 28.0099 15.5851 28.1651 14.9997 28.1661C14.0968 28.1577 13.2339 27.7922 12.5997 27.1495C12.2952 26.8345 12.0557 26.4625 11.8951 26.0549C11.7345 25.6472 11.6558 25.2119 11.6635 24.7739C11.6712 24.3358 11.7653 23.9036 11.9402 23.5019C12.1151 23.1002 12.3676 22.7369 12.683 22.4328L17.683 17.5995C18.3051 16.9999 19.1357 16.6653 19.9997 16.6661C20.8823 16.6699 21.7274 17.0235 22.3497 17.6495L27.3497 22.6495C27.9705 23.274 28.319 24.1189 28.319 24.9995C28.319 25.8801 27.9705 26.7249 27.3497 27.3495C26.7274 27.9755 25.8823 28.3291 24.9997 28.3328C24.4134 28.3383 23.8368 28.1827 23.333 27.8828V29.9995H28.333C29.6267 29.9995 30.9027 29.6983 32.0598 29.1197C33.2169 28.5411 34.2234 27.7011 34.9997 26.6661L35.083 26.5828C35.1145 26.5408 35.1424 26.4962 35.1663 26.4495L35.3997 26.0828C35.586 25.7826 35.753 25.4709 35.8997 25.1495L36.0997 24.6661C36.2171 24.3496 36.3173 24.0269 36.3997 23.6995C36.3997 23.5328 36.483 23.3828 36.5163 23.2161C36.6102 22.7047 36.6604 22.1861 36.6663 21.6661C36.6644 21.1065 36.6086 20.5484 36.4997 19.9995Z" fill="#919EAB"/>
<path d="M21.183 18.8161C20.8715 18.5108 20.4526 18.3397 20.0163 18.3397C19.5801 18.3397 19.1612 18.5108 18.8497 18.8161L13.8497 23.6495C13.6728 23.7954 13.528 23.9763 13.4242 24.1807C13.3205 24.3852 13.26 24.6088 13.2466 24.8377C13.2332 25.0666 13.2672 25.2958 13.3465 25.511C13.4257 25.7261 13.5485 25.9226 13.7071 26.0882C13.8658 26.2537 14.0569 26.3847 14.2684 26.4731C14.48 26.5614 14.7076 26.6051 14.9368 26.6015C15.1661 26.5978 15.3921 26.5469 15.6008 26.452C15.8095 26.357 15.9964 26.22 16.1497 26.0495L18.333 23.9328V33.3328C18.333 33.7748 18.5086 34.1988 18.8212 34.5113C19.1337 34.8239 19.5576 34.9995 19.9997 34.9995C20.4417 34.9995 20.8656 34.8239 21.1782 34.5113C21.4907 34.1988 21.6663 33.7748 21.6663 33.3328V24.0161L23.8163 26.1828C23.9713 26.339 24.1556 26.463 24.3587 26.5476C24.5618 26.6322 24.7797 26.6758 24.9997 26.6758C25.2197 26.6758 25.4375 26.6322 25.6406 26.5476C25.8437 26.463 26.0281 26.339 26.183 26.1828C26.3392 26.0279 26.4632 25.8435 26.5478 25.6404C26.6324 25.4373 26.676 25.2195 26.676 24.9995C26.676 24.7795 26.6324 24.5616 26.5478 24.3585C26.4632 24.1554 26.3392 23.9711 26.183 23.8161L21.183 18.8161Z" fill="#919EAB"/>
</svg>
