<svg width="20" height="20" viewBox="0 0 20 20" fill="none" xmlns="http://www.w3.org/2000/svg">
<path d="M10 18.3317C8.70757 18.3631 7.45544 17.8807 6.51816 16.9903C5.58087 16.0998 5.03492 14.8741 5 13.5817V5.10674C5.02403 4.1725 5.4172 3.28582 6.09347 2.64079C6.76973 1.99576 7.674 1.64493 8.60833 1.66507C9.5441 1.64269 10.4505 1.99253 11.1286 2.63779C11.8067 3.28306 12.201 4.17102 12.225 5.10674V13.5901C12.1903 14.1556 11.9413 14.6865 11.5286 15.0747C11.1159 15.4628 10.5707 15.679 10.0042 15.679C9.43762 15.679 8.89241 15.4628 8.47973 15.0747C8.06705 14.6865 7.81799 14.1556 7.78333 13.5901V5.76507C7.78333 5.54406 7.87113 5.3321 8.02741 5.17582C8.18369 5.01954 8.39565 4.93174 8.61667 4.93174C8.83768 4.93174 9.04964 5.01954 9.20592 5.17582C9.3622 5.3321 9.45 5.54406 9.45 5.76507V13.5901C9.46662 13.7253 9.53214 13.8499 9.63422 13.9402C9.7363 14.0305 9.86788 14.0803 10.0042 14.0803C10.1405 14.0803 10.272 14.0305 10.3741 13.9402C10.4762 13.8499 10.5417 13.7253 10.5583 13.5901V5.10674C10.5324 4.61375 10.3131 4.15087 9.94806 3.81855C9.58299 3.48624 9.10158 3.31131 8.60833 3.33174C8.11649 3.31356 7.63723 3.48949 7.27397 3.82157C6.91071 4.15365 6.69258 4.61525 6.66667 5.10674V13.5817C6.70136 14.4321 7.07164 15.2341 7.69641 15.812C8.32118 16.3899 9.14952 16.6966 10 16.6651C10.8505 16.6966 11.6788 16.3899 12.3036 15.812C12.9284 15.2341 13.2986 14.4321 13.3333 13.5817V5.10674C13.3333 4.88573 13.4211 4.67377 13.5774 4.51748C13.7337 4.3612 13.9457 4.27341 14.1667 4.27341C14.3877 4.27341 14.5996 4.3612 14.7559 4.51748C14.9122 4.67377 15 4.88573 15 5.10674V13.5817C14.9651 14.8741 14.4191 16.0998 13.4818 16.9903C12.5446 17.8807 11.2924 18.3631 10 18.3317Z" fill="#1D7BF5"/>
</svg>
