<svg width="24" height="25" viewBox="0 0 24 25" fill="none" xmlns="http://www.w3.org/2000/svg">
<path d="M15.5013 12.4987C15.5017 12.7324 15.4204 12.9588 15.2713 13.1387L10.2713 19.1387C9.91781 19.564 9.28653 19.6222 8.86128 19.2687C8.43602 18.9153 8.37781 18.284 8.73127 17.8587L13.2113 12.4987L8.89127 7.13873C8.7235 6.93213 8.64501 6.66718 8.67316 6.40254C8.70131 6.1379 8.83379 5.8954 9.04127 5.72873C9.24913 5.54359 9.52475 5.45347 9.80183 5.48004C10.0789 5.50661 10.3324 5.64746 10.5013 5.86872L15.3313 11.8687C15.4568 12.0538 15.5166 12.2756 15.5013 12.4987Z" fill="#111111"/>
</svg>
