<svg width="32" height="33" viewBox="0 0 32 33" fill="none" xmlns="http://www.w3.org/2000/svg">
<path opacity="0.5" d="M24.6667 12.5004C25.1182 12.4987 25.5507 12.4378 25.964 12.3178C25.988 12.5995 26 12.884 26 13.1711V18.5044L27.8907 22.7178C27.9766 22.9105 28.0131 23.1216 27.9967 23.332C27.9804 23.5423 27.9117 23.7453 27.797 23.9224C27.6823 24.0995 27.5252 24.2451 27.3399 24.3461C27.1546 24.447 26.947 24.5001 26.736 24.5004H5.26933C5.05804 24.5004 4.85011 24.4475 4.66449 24.3466C4.47886 24.2457 4.32143 24.0999 4.20653 23.9226C4.09163 23.7453 4.02291 23.542 4.00663 23.3314C3.99036 23.1207 4.02703 22.9093 4.11333 22.7164L6 18.5031V13.1538L6.00666 12.8204C6.27466 5.1551 14.7173 0.63377 21.2467 4.65644C18.8013 7.2871 20.12 11.5804 23.6213 12.3831C23.9642 12.4615 24.3149 12.5008 24.6667 12.5004Z" fill="white"/>
<path d="M24.6667 11.1667C27.2334 11.1667 28.836 8.38933 27.5534 6.16667C27.2608 5.65995 26.84 5.23916 26.3333 4.9466C25.8266 4.65404 25.2518 4.50001 24.6667 4.5C22.1 4.5 20.4974 7.27733 21.78 9.5C22.0726 10.0067 22.4934 10.4275 23.0001 10.7201C23.5068 11.0126 24.0816 11.1667 24.6667 11.1667ZM19.944 25.8373C19.4307 28.8733 15.824 30.2147 13.4507 28.252C12.7112 27.6405 12.2162 26.7835 12.056 25.8373H19.944Z" fill="white"/>
</svg>
