<svg width="20" height="20" viewBox="0 0 20 20" fill="none" xmlns="http://www.w3.org/2000/svg">
<g opacity="0.48">
<path fill-rule="evenodd" clip-rule="evenodd" d="M18.3337 9.99935C18.3337 14.6018 14.6028 18.3327 10.0003 18.3327C5.39783 18.3327 1.66699 14.6018 1.66699 9.99935C1.66699 5.39685 5.39783 1.66602 10.0003 1.66602C14.6028 1.66602 18.3337 5.39685 18.3337 9.99935ZM7.47533 7.47435C7.59251 7.35731 7.75137 7.29157 7.91699 7.29157C8.08262 7.29157 8.24147 7.35731 8.35866 7.47435L10.0003 9.11602L11.642 7.47435C11.7605 7.36395 11.9172 7.30385 12.0791 7.3067C12.241 7.30956 12.3955 7.37515 12.51 7.48966C12.6245 7.60418 12.6901 7.75866 12.693 7.92058C12.6958 8.0825 12.6357 8.2392 12.5253 8.35768L10.8837 9.99935L12.5253 11.641C12.6357 11.7595 12.6958 11.9162 12.693 12.0781C12.6901 12.24 12.6245 12.3945 12.51 12.509C12.3955 12.6235 12.241 12.6891 12.0791 12.692C11.9172 12.6949 11.7605 12.6347 11.642 12.5243L10.0003 10.8827L8.35866 12.5243C8.24018 12.6347 8.08348 12.6949 7.92156 12.692C7.75964 12.6891 7.60515 12.6235 7.49064 12.509C7.37613 12.3945 7.31054 12.24 7.30768 12.0781C7.30482 11.9162 7.36493 11.7595 7.47533 11.641L9.11699 9.99935L7.47533 8.35768C7.35828 8.24049 7.29254 8.08164 7.29254 7.91602C7.29254 7.75039 7.35828 7.59154 7.47533 7.47435Z" fill="#111111"/>
</g>
</svg>
