<svg width="20" height="21" viewBox="0 0 20 21" fill="none" xmlns="http://www.w3.org/2000/svg">
<path d="M4.16669 16.3352V9.09182C4.16669 8.87849 4.21446 8.67655 4.31002 8.48599C4.40558 8.29543 4.53724 8.13849 4.70502 8.01516L9.19252 4.61682C9.42752 4.43738 9.69585 4.34766 9.99752 4.34766C10.2992 4.34766 10.5692 4.43738 10.8075 4.61682L15.295 8.01432C15.4634 8.13766 15.595 8.29488 15.69 8.48599C15.7856 8.67655 15.8334 8.87849 15.8334 9.09182V16.3352C15.8334 16.5585 15.7503 16.7532 15.5842 16.9193C15.4181 17.0854 15.2234 17.1685 15 17.1685H12.18C11.9889 17.1685 11.8289 17.104 11.7 16.9752C11.5711 16.8457 11.5067 16.6857 11.5067 16.4952V12.521C11.5067 12.3304 11.4422 12.1707 11.3134 12.0418C11.1839 11.9124 11.0239 11.8477 10.8334 11.8477H9.16669C8.97613 11.8477 8.81641 11.9124 8.68752 12.0418C8.55808 12.1707 8.49335 12.3304 8.49335 12.521V16.496C8.49335 16.6865 8.42891 16.8463 8.30002 16.9752C8.17113 17.104 8.01141 17.1685 7.82085 17.1685H5.00002C4.77669 17.1685 4.58196 17.0854 4.41585 16.9193C4.24974 16.7532 4.16669 16.5585 4.16669 16.3352Z" fill="white"/>
</svg>
