<svg width="32" height="33" viewBox="0 0 32 33" fill="none" xmlns="http://www.w3.org/2000/svg">
<path opacity="0.5" d="M16 3.16797C23.364 3.16797 29.3334 9.1373 29.3334 16.5013C29.3334 23.8653 23.364 29.8346 16 29.8346H5.33335C4.62611 29.8346 3.94783 29.5537 3.44774 29.0536C2.94764 28.5535 2.66669 27.8752 2.66669 27.168V16.5013C2.66669 9.1373 8.63602 3.16797 16 3.16797Z" fill="white"/>
<path d="M20 13.832H12C11.6602 13.8324 11.3333 13.9625 11.0862 14.1958C10.8391 14.4291 10.6904 14.748 10.6705 15.0872C10.6505 15.4265 10.7609 15.7605 10.979 16.0211C11.1972 16.2817 11.5066 16.4492 11.844 16.4894L12 16.4987H20C20.3399 16.4983 20.6667 16.3682 20.9138 16.1349C21.161 15.9016 21.3097 15.5828 21.3296 15.2435C21.3495 14.9042 21.2391 14.5702 21.021 14.3096C20.8029 14.049 20.4935 13.8815 20.156 13.8414L20 13.832ZM16 19.1654H12C11.6464 19.1654 11.3073 19.3058 11.0572 19.5559C10.8072 19.8059 10.6667 20.1451 10.6667 20.4987C10.6667 20.8523 10.8072 21.1915 11.0572 21.4415C11.3073 21.6916 11.6464 21.832 12 21.832H16C16.3536 21.832 16.6928 21.6916 16.9428 21.4415C17.1929 21.1915 17.3334 20.8523 17.3334 20.4987C17.3334 20.1451 17.1929 19.8059 16.9428 19.5559C16.6928 19.3058 16.3536 19.1654 16 19.1654Z" fill="white"/>
</svg>
