<svg width="32" height="33" viewBox="0 0 32 33" fill="none" xmlns="http://www.w3.org/2000/svg">
<path opacity="0.5" d="M8.98451 4.31641V5.67021C8.98451 6.38831 9.26978 7.07701 9.77755 7.58478C10.2853 8.09256 10.974 8.37782 11.6921 8.37782H19.815C20.5331 8.37782 21.2218 8.09256 21.7295 7.58478C22.2373 7.07701 22.5226 6.38831 22.5226 5.67021V4.31641H23.8764C24.5945 4.31641 25.2832 4.60167 25.7909 5.10945C26.2987 5.61722 26.584 6.30591 26.584 7.02402V21.9159C26.584 24.0702 25.7282 26.1363 24.2049 27.6596C22.6815 29.1829 20.6155 30.0387 18.4612 30.0387H7.63071C6.9126 30.0387 6.22391 29.7534 5.71614 29.2457C5.20836 28.7379 4.9231 28.0492 4.9231 27.3311V7.02402C4.9231 6.30591 5.20836 5.61722 5.71614 5.10945C6.22391 4.60167 6.9126 4.31641 7.63071 4.31641H8.98451Z" fill="white"/>
<path d="M18.4619 2.96094C18.807 2.96132 19.1389 3.09345 19.3898 3.33032C19.6407 3.5672 19.7917 3.89094 19.8119 4.2354C19.8321 4.57987 19.7201 4.91905 19.4986 5.18366C19.2771 5.44826 18.963 5.61832 18.6203 5.65907L18.4619 5.66855H13.0467C12.7017 5.66817 12.3698 5.53604 12.1189 5.29916C11.868 5.06229 11.717 4.73855 11.6967 4.39408C11.6765 4.04962 11.7886 3.71043 12.0101 3.44583C12.2315 3.18122 12.5457 3.01117 12.8883 2.97041L13.0467 2.96094H18.4619ZM19.8158 13.7914H11.6929C11.3479 13.7918 11.016 13.9239 10.7651 14.1608C10.5142 14.3976 10.3632 14.7214 10.3429 15.0658C10.3227 15.4103 10.4348 15.7495 10.6563 16.0141C10.8777 16.2787 11.1919 16.4488 11.5345 16.4895L11.6929 16.499H19.8158C20.1748 16.499 20.5191 16.3564 20.773 16.1025C21.0269 15.8486 21.1696 15.5042 21.1696 15.1452C21.1696 14.7861 21.0269 14.4418 20.773 14.1879C20.5191 13.934 20.1748 13.7914 19.8158 13.7914ZM15.7543 19.2066H11.6929C11.3339 19.2066 10.9895 19.3492 10.7356 19.6031C10.4817 19.857 10.3391 20.2014 10.3391 20.5604C10.3391 20.9195 10.4817 21.2638 10.7356 21.5177C10.9895 21.7716 11.3339 21.9142 11.6929 21.9142H15.7543C16.1134 21.9142 16.4577 21.7716 16.7116 21.5177C16.9655 21.2638 17.1081 20.9195 17.1081 20.5604C17.1081 20.2014 16.9655 19.857 16.7116 19.6031C16.4577 19.3492 16.1134 19.2066 15.7543 19.2066Z" fill="white"/>
</svg>
