<svg width="32" height="33" viewBox="0 0 32 33" fill="none" xmlns="http://www.w3.org/2000/svg">
<path opacity="0.5" d="M25.3333 13.832C26.3942 13.832 27.4116 14.2535 28.1618 15.0036C28.9119 15.7537 29.3333 16.7712 29.3333 17.832V21.832C29.3333 22.8929 28.9119 23.9103 28.1618 24.6605C27.4116 25.4106 26.3942 25.832 25.3333 25.832V27.12C25.3333 28.5334 23.6853 29.3054 22.6 28.4L19.5173 25.832H16C14.9391 25.832 13.9217 25.4106 13.1716 24.6605C12.4214 23.9103 12 22.8929 12 21.832V17.832C12 16.7712 12.4214 15.7537 13.1716 15.0036C13.9217 14.2535 14.9391 13.832 16 13.832H25.3333Z" fill="white"/>
<path d="M21.3334 5.83203C22.3942 5.83203 23.4116 6.25346 24.1618 7.0036C24.9119 7.75375 25.3334 8.77117 25.3334 9.83203V11.1654H14.6667C13.2522 11.1654 11.8956 11.7273 10.8954 12.7275C9.89526 13.7277 9.33335 15.0842 9.33335 16.4987V21.832C9.33335 23.224 9.86669 24.4934 10.7414 25.4427L9.33335 26.4987C8.23469 27.3227 6.66669 26.5387 6.66669 25.1654V23.1654C5.60582 23.1654 4.58841 22.7439 3.83826 21.9938C3.08811 21.2436 2.66669 20.2262 2.66669 19.1654V9.83203C2.66669 8.77117 3.08811 7.75375 3.83826 7.0036C4.58841 6.25346 5.60582 5.83203 6.66669 5.83203H21.3334Z" fill="white"/>
</svg>
