<svg width="248" height="160" viewBox="0 0 248 160" fill="none" xmlns="http://www.w3.org/2000/svg">
<g clip-path="url(#clip0_5056_18440)">
<path d="M0 16C0 7.16345 7.16344 0 16 0H232C240.837 0 248 7.16344 248 16V144C248 152.837 240.837 160 232 160H16C7.16344 160 0 152.837 0 144V16Z" fill="#00CFCF"/>
<path d="M469.426 42.0513C465.419 23.8833 447.462 12.3858 429.27 16.3938C416.898 19.1146 407.656 28.301 404.234 39.623L345.067 197.868L275.605 51.7057C265.31 30.6122 250.832 13.2634 221.176 14.0241C191.519 14.7848 174.234 38.7746 169.116 50.6233L94.7107 249.681C94.4767 250.295 94.2427 250.88 94.038 251.494L93.6285 252.548H93.687C92.0784 257.901 91.7567 263.694 93.0436 269.545C97.0504 287.713 115.008 299.211 133.2 295.203C145.572 292.482 154.814 283.296 158.236 271.974L222.58 99.861L306.285 272.939C306.519 273.553 306.782 274.138 307.133 274.694L307.631 275.718H307.689C309.034 278.088 310.701 280.341 312.661 282.389C322.4 293.681 334.801 296.753 355.04 295.232C379.286 293.418 389.845 270.482 393.383 260.915L467.788 61.916C468.022 61.3017 468.256 60.7165 468.461 60.1022L468.871 59.049H468.812C470.421 53.6951 470.742 47.9025 469.455 42.0513H469.426Z" fill="url(#paint0_linear_5056_18440)"/>
<path d="M162.036 69.6594L94.4699 249.15C94.2351 249.765 94.0003 250.351 93.7948 250.966L93.3839 252.05H93.4426C91.8283 257.41 91.5054 263.209 92.7969 269.068C96.818 287.257 114.839 298.768 133.096 294.755C145.511 292.031 154.786 282.834 158.22 271.499L222.5 100C222.5 100 210.465 60.2572 194.469 57.2403C183.433 55.1607 172.397 53.4619 162.036 69.6301V69.6594Z" fill="url(#paint1_linear_5056_18440)"/>
</g>
<defs>
<linearGradient id="paint0_linear_5056_18440" x1="268.5" y1="14" x2="258.082" y2="78.2913" gradientUnits="userSpaceOnUse">
<stop stop-color="#00BCBC"/>
<stop offset="1" stop-color="#00CFCF"/>
</linearGradient>
<linearGradient id="paint1_linear_5056_18440" x1="208.5" y1="56.0002" x2="146.882" y2="179.19" gradientUnits="userSpaceOnUse">
<stop stop-color="#00B9B9"/>
<stop offset="1" stop-color="#00CFCF"/>
</linearGradient>
<clipPath id="clip0_5056_18440">
<path d="M0 16C0 7.16345 7.16344 0 16 0H232C240.837 0 248 7.16344 248 16V144C248 152.837 240.837 160 232 160H16C7.16344 160 0 152.837 0 144V16Z" fill="white"/>
</clipPath>
</defs>
</svg>
