<svg width="123" height="38" viewBox="0 0 123 38" fill="none" xmlns="http://www.w3.org/2000/svg">
<g clip-path="url(#clip0_5174_21975)">
<path d="M52.1316 18.6824V13.9731H53.9113V18.6824H56.4358V13.9731H58.2346V18.6824H62.7298V20.3326H48.8242V18.6824H52.1316ZM59.7279 16.01V8.73542H49.9432V7.05078H61.6108V16.01H59.7279Z" fill="#585857"/>
<path d="M78.6022 16.8102V21.4851H76.7194V18.4259H66.5795V16.8102H68.9894L69.0046 15.0413H65.8156V13.4103H79.7212V15.0413H76.5169V16.8102H78.6022ZM76.5017 9.39781C76.5017 9.87257 76.3985 10.3205 76.1961 10.7417C75.9899 11.1628 75.7264 11.5342 75.3979 11.8635C75.058 12.1698 74.6646 12.4148 74.2102 12.6024C73.7595 12.79 73.2783 12.8819 72.7703 12.8819C72.2624 12.8819 71.7812 12.79 71.3191 12.6024C70.8608 12.4148 70.4636 12.1698 70.1237 11.8635C69.7952 11.5342 69.5317 11.1628 69.3255 10.7417C69.1192 10.3244 69.0199 9.87639 69.0199 9.39781C69.0199 8.91922 69.1192 8.47509 69.3255 8.05393C69.5279 7.63277 69.7952 7.26138 70.1237 6.93211C70.4636 6.61433 70.8608 6.36163 71.3191 6.17403C71.7774 5.98642 72.2624 5.89453 72.7703 5.89453C73.2783 5.89453 73.7595 5.98642 74.2102 6.17403C74.6646 6.36163 75.058 6.61433 75.3979 6.93211C75.7226 7.26138 75.9899 7.63277 76.1961 8.05393C76.3985 8.47509 76.5017 8.91922 76.5017 9.39781ZM70.7194 16.8102H74.7907V15.0413H70.7385L70.7194 16.8102ZM74.6532 9.39781C74.6532 8.88859 74.4699 8.45594 74.0994 8.09604C73.7328 7.73997 73.2897 7.56002 72.7703 7.56002C72.2509 7.56002 71.8041 7.73997 71.4298 8.09604C71.0555 8.45211 70.8684 8.88476 70.8684 9.39781C70.8684 9.91085 71.0555 10.3435 71.4298 10.7072C71.8041 11.071 72.2471 11.2509 72.7703 11.2509C73.2936 11.2509 73.7328 11.071 74.0994 10.7072C74.4661 10.3435 74.6532 9.90702 74.6532 9.39781Z" fill="#585857"/>
<path d="M82.979 15.8657H96.8846V17.5311H90.8656V21.4403H88.9827V17.5311H82.979V15.8657ZM85.9465 8.45327H93.898V6.53125H95.7617V13.825H84.0942V6.53125H85.9427V8.45327H85.9465ZM93.898 10.0881H85.9465V12.1786H93.898V10.0881Z" fill="#585857"/>
<path d="M54.1825 27.3125V32.6918H53.3193V28.3616L51.9177 32.6918H51.0851L49.6835 28.3616V32.6918H48.8204V27.3125H50.1456L51.5014 31.5049L52.8572 27.3125H54.1787H54.1825Z" fill="#585857"/>
<path d="M56.2448 27.7347C56.2448 27.884 56.1875 28.0142 56.0806 28.1252C55.9698 28.2363 55.8362 28.2899 55.6834 28.2899C55.5306 28.2899 55.397 28.2324 55.2862 28.1252C55.1754 28.0142 55.122 27.884 55.122 27.7347C55.122 27.5854 55.1754 27.4475 55.2862 27.3365C55.397 27.2255 55.5268 27.1719 55.6834 27.1719C55.84 27.1719 55.9698 27.2255 56.0806 27.3365C56.1913 27.4475 56.2448 27.5777 56.2448 27.7347ZM55.2518 32.6929V28.8259H56.1302V32.6929H55.2518Z" fill="#585857"/>
<path d="M58.0704 30.7483V32.6933H57.1996V28.8263H58.0398V29.3431C58.1429 29.1632 58.2919 29.0177 58.4867 28.9028C58.6814 28.7918 58.8915 28.7344 59.1168 28.7344C59.5751 28.7344 59.938 28.8913 60.2129 29.2015C60.4879 29.5116 60.6254 29.9289 60.6254 30.4458V32.6933H59.747V30.6717C59.747 30.2582 59.6821 29.9557 59.5484 29.7566C59.4147 29.5575 59.2085 29.458 58.9335 29.458C58.7884 29.458 58.6509 29.5039 58.5134 29.5997C58.3759 29.6954 58.2728 29.8256 58.2002 29.9902C58.1124 30.1816 58.0704 30.4305 58.0704 30.7445V30.7483Z" fill="#585857"/>
<path d="M62.6572 27.7347C62.6572 27.884 62.6037 28.0142 62.493 28.1252C62.3822 28.2363 62.2485 28.2899 62.0958 28.2899C61.943 28.2899 61.8093 28.2324 61.6986 28.1252C61.5878 28.0142 61.5305 27.884 61.5305 27.7347C61.5305 27.5854 61.5878 27.4475 61.6986 27.3365C61.8093 27.2255 61.9392 27.1719 62.0958 27.1719C62.2524 27.1719 62.3822 27.2255 62.493 27.3365C62.6037 27.4475 62.6572 27.5777 62.6572 27.7347ZM61.6642 32.6929V28.8259H62.5426V32.6929H61.6642Z" fill="#585857"/>
<path d="M63.2568 31.9734L63.8029 31.4106C63.9595 31.6211 64.1276 31.7858 64.3109 31.9045C64.4904 32.0117 64.6852 32.0653 64.8876 32.0653C65.09 32.0653 65.2466 32.027 65.3841 31.9466C65.5216 31.8662 65.5903 31.759 65.5903 31.625C65.5903 31.491 65.5254 31.3876 65.3917 31.311C65.2619 31.2383 65.1053 31.1655 64.9258 31.1004C64.7157 31.0354 64.498 30.9588 64.2803 30.8784C63.9824 30.7712 63.7648 30.6333 63.6273 30.461C63.4898 30.2926 63.421 30.0973 63.421 29.8829C63.421 29.5651 63.57 29.2933 63.8679 29.0674C64.1658 28.8453 64.5171 28.7305 64.922 28.7305C65.3497 28.7305 65.7049 28.8338 65.976 29.0406C66.1135 29.1478 66.2243 29.2818 66.3083 29.4426L65.7698 29.9671C65.6973 29.8446 65.6132 29.7451 65.5177 29.6647C65.3497 29.5154 65.1358 29.4426 64.88 29.4426C64.731 29.4426 64.6011 29.4809 64.4904 29.5536C64.3796 29.6302 64.3262 29.7183 64.3262 29.8217C64.3262 29.9327 64.3873 30.0284 64.5095 30.1088C64.6355 30.1854 64.815 30.262 65.0556 30.3309C65.1435 30.3577 65.2428 30.3883 65.3535 30.4228C65.7278 30.5453 66.0104 30.7061 66.2052 30.9013C66.3962 31.0966 66.4916 31.3302 66.4916 31.602C66.4916 31.9198 66.3389 32.1955 66.0295 32.4328C65.7202 32.6664 65.3306 32.7851 64.8532 32.7851C64.4522 32.7851 64.097 32.6932 63.7915 32.5056C63.5853 32.3831 63.4096 32.2031 63.2606 31.9734H63.2568Z" fill="#585857"/>
<path d="M68.3019 27.582V28.8263H69.1383V29.5346H68.3019V31.5026C68.3019 31.6863 68.3478 31.8127 68.4356 31.8854C68.5273 31.9543 68.6533 31.9888 68.8175 31.9888H69.1421V32.6895H68.6113C68.195 32.6895 67.8933 32.5976 67.7023 32.41C67.5114 32.2262 67.4159 31.9505 67.4159 31.583V29.5308H66.7552V28.8225H67.4159V27.5781H68.3019V27.582Z" fill="#585857"/>
<path d="M69.8716 32.6939V28.8269H70.6966V29.405C70.8264 29.2136 70.983 29.0681 71.1663 28.9647C71.3878 28.8307 71.6475 28.7656 71.9454 28.7656H72.0065V29.5505H71.9149C71.552 29.5505 71.2618 29.6615 71.0441 29.8836C70.8455 30.098 70.7462 30.4388 70.7462 30.8944V32.6939H69.8754H69.8716Z" fill="#585857"/>
<path d="M73.8512 32.5419L72.335 28.8242H73.2439L74.2904 31.4622L75.3292 28.8242H76.2305L74.0841 34.1882H73.1905L73.8512 32.5419Z" fill="#585857"/>
<path d="M80.5003 32.7852C79.9351 32.7852 79.4539 32.5899 79.0567 32.2032C78.6595 31.8165 78.4609 31.3341 78.4609 30.7636C78.4609 30.1931 78.6595 29.7107 79.0567 29.3202C79.4539 28.9296 79.9351 28.7344 80.5003 28.7344C81.0655 28.7344 81.5544 28.9296 81.9478 29.3202C82.3411 29.7107 82.5397 30.1931 82.5397 30.7636C82.5397 31.3341 82.3411 31.8127 81.9478 32.2032C81.5506 32.5937 81.0694 32.7852 80.5003 32.7852ZM80.5003 32.0577C80.8173 32.0577 81.0923 31.9352 81.3214 31.694C81.5506 31.4489 81.6652 31.1388 81.6652 30.7636C81.6652 30.3884 81.5506 30.0821 81.3214 29.8332C81.0923 29.5843 80.8211 29.458 80.5003 29.458C80.1795 29.458 79.916 29.5843 79.6868 29.8332C79.4577 30.0821 79.3431 30.3922 79.3431 30.7636C79.3431 31.135 79.4577 31.4489 79.6868 31.694C79.916 31.939 80.1871 32.0577 80.5003 32.0577Z" fill="#585857"/>
<path d="M83.4831 28.4151C83.4831 28.0552 83.5862 27.7795 83.7886 27.5919C83.9911 27.4043 84.3004 27.3086 84.7167 27.3086H85.1406V28.0092H84.8847C84.7205 28.0092 84.5945 28.0437 84.5028 28.1126C84.415 28.1815 84.3692 28.3079 84.3692 28.4955V28.8209H85.1406V29.5292H84.3692V32.6879H83.4831V29.5292H82.8224V28.8209H83.4831V28.4113V28.4151Z" fill="#585857"/>
<path d="M91.7134 32.6918H88.1883V27.3125H91.6981V28.0629H89.0896V29.6212H91.637V30.3448H89.0896V31.9414H91.7134V32.6918Z" fill="#585857"/>
<path d="M94.2264 28.729C94.6847 28.729 95.0743 28.9167 95.4027 29.2842V27.3086H96.2811V32.6879H95.4333V32.2017C95.1086 32.5884 94.7076 32.7798 94.2264 32.7798C93.6612 32.7798 93.2067 32.5769 92.8553 32.1787C92.5078 31.7767 92.3321 31.3058 92.3321 30.7583C92.3321 30.2108 92.5078 29.736 92.8553 29.334C93.2029 28.9281 93.6612 28.7252 94.2264 28.7252V28.729ZM95.3989 31.0071C95.4142 30.8387 95.4142 30.674 95.3989 30.5132C95.3683 30.2184 95.2576 29.9772 95.0743 29.7781C94.868 29.5599 94.616 29.4527 94.3104 29.4527C93.9705 29.4527 93.7032 29.579 93.5084 29.8279C93.3136 30.0768 93.2143 30.3869 93.2143 30.7583C93.2143 31.1296 93.3098 31.4436 93.5084 31.6886C93.7032 31.9337 93.9705 32.0524 94.3104 32.0524C94.6121 32.0524 94.868 31.9452 95.0743 31.7308C95.2576 31.5355 95.3683 31.2943 95.3989 31.0033V31.0071Z" fill="#585857"/>
<path d="M99.8368 30.7691V28.8241H100.715V32.6911H99.8788V32.1819C99.7718 32.3734 99.6267 32.515 99.4472 32.6146C99.2372 32.7256 99.0195 32.783 98.7941 32.783C98.3435 32.783 97.9807 32.6299 97.7057 32.3198C97.4307 32.0096 97.2932 31.5923 97.2932 31.0678V28.8203H98.164V30.8495C98.164 31.2554 98.2327 31.5578 98.3702 31.7569C98.5039 31.956 98.7139 32.0556 98.9889 32.0556C99.1264 32.0556 99.2677 32.0096 99.4052 31.9139C99.5427 31.8182 99.6496 31.6918 99.7222 31.531C99.8062 31.3396 99.8444 31.0869 99.8444 30.7653L99.8368 30.7691Z" fill="#585857"/>
<path d="M101.46 30.7636C101.46 30.2084 101.67 29.7298 102.09 29.3317C102.506 28.9335 103.037 28.7344 103.679 28.7344C104.183 28.7344 104.653 28.8952 105.096 29.2206L104.809 29.9098C104.424 29.6112 104.046 29.4618 103.679 29.4618C103.285 29.4618 102.965 29.5882 102.716 29.8409C102.472 30.0936 102.346 30.3999 102.346 30.7674C102.346 31.135 102.468 31.4413 102.716 31.6901C102.965 31.939 103.282 32.0654 103.679 32.0654C104.076 32.0654 104.435 31.9199 104.825 31.6251L105.107 32.3104C104.683 32.6282 104.206 32.789 103.675 32.789C103.033 32.789 102.503 32.5899 102.086 32.1955C101.666 31.7973 101.456 31.3226 101.456 30.7674L101.46 30.7636Z" fill="#585857"/>
<path d="M107.555 30.2008H108.464C108.464 29.9481 108.369 29.7605 108.174 29.6341C107.979 29.5078 107.697 29.4465 107.326 29.4465H107.303C106.956 29.4465 106.585 29.5269 106.196 29.6916L105.974 29.0062C106.379 28.8301 106.826 28.742 107.315 28.7344H107.33C107.975 28.7344 108.472 28.8607 108.819 29.1096C109.167 29.3585 109.339 29.7566 109.339 30.3041V32.6971H108.506V32.2721C108.342 32.4367 108.14 32.5631 107.903 32.655C107.666 32.743 107.422 32.789 107.177 32.789C106.715 32.789 106.341 32.6665 106.058 32.4214C105.772 32.1764 105.63 31.8777 105.63 31.5217C105.63 31.1273 105.806 30.7981 106.161 30.5415C106.49 30.3156 106.956 30.2008 107.563 30.2008H107.555ZM107.319 32.0922C107.544 32.0922 107.769 32.0347 107.987 31.9275C108.208 31.8165 108.369 31.6901 108.464 31.5447V30.8899H107.689C107.246 30.8899 106.94 30.9474 106.765 31.0584C106.597 31.1886 106.509 31.3417 106.509 31.5217C106.509 31.6863 106.581 31.8241 106.723 31.9314C106.864 32.0386 107.063 32.0922 107.315 32.0922H107.319Z" fill="#585857"/>
<path d="M111.474 27.582V28.8263H112.314V29.5346H111.474V31.5026C111.474 31.6863 111.52 31.8127 111.607 31.8854C111.695 31.9543 111.825 31.9888 111.989 31.9888H112.314V32.6895H111.783C111.367 32.6895 111.065 32.5976 110.874 32.41C110.683 32.2262 110.588 31.9505 110.588 31.583V29.5308H109.927V28.8225H110.588V27.5781H111.474V27.582Z" fill="#585857"/>
<path d="M114.059 27.7347C114.059 27.884 114.002 28.0142 113.895 28.1252C113.784 28.2363 113.651 28.2899 113.498 28.2899C113.345 28.2899 113.212 28.2324 113.101 28.1252C112.99 28.018 112.937 27.884 112.937 27.7347C112.937 27.5854 112.99 27.4475 113.101 27.3365C113.212 27.2255 113.345 27.1719 113.498 27.1719C113.651 27.1719 113.784 27.2255 113.895 27.3365C114.006 27.4475 114.059 27.5777 114.059 27.7347ZM113.066 32.6929V28.8259H113.945V32.6929H113.066Z" fill="#585857"/>
<path d="M116.782 32.7852C116.217 32.7852 115.736 32.5899 115.339 32.2032C114.942 31.8165 114.743 31.3341 114.743 30.7636C114.743 30.1931 114.942 29.7107 115.339 29.3202C115.736 28.9296 116.217 28.7344 116.782 28.7344C117.348 28.7344 117.833 28.9296 118.23 29.3202C118.623 29.7107 118.822 30.1931 118.822 30.7636C118.822 31.3341 118.623 31.8127 118.23 32.2032C117.833 32.5937 117.351 32.7852 116.782 32.7852ZM116.782 32.0577C117.099 32.0577 117.374 31.9352 117.604 31.694C117.833 31.4528 117.947 31.1388 117.947 30.7636C117.947 30.3884 117.833 30.0821 117.604 29.8332C117.374 29.5843 117.103 29.458 116.782 29.458C116.462 29.458 116.198 29.5843 115.969 29.8332C115.74 30.0821 115.625 30.3922 115.625 30.7636C115.625 31.135 115.74 31.4489 115.969 31.694C116.198 31.939 116.469 32.0577 116.782 32.0577Z" fill="#585857"/>
<path d="M120.445 30.7483V32.6933H119.574V28.8263H120.414V29.3431C120.518 29.1632 120.666 29.0177 120.861 28.9028C121.056 28.7918 121.266 28.7344 121.491 28.7344C121.95 28.7344 122.313 28.8913 122.588 29.2015C122.863 29.5116 123 29.9289 123 30.4458V32.6933H122.122V30.6717C122.122 30.2582 122.057 29.9557 121.919 29.7566C121.786 29.5575 121.579 29.458 121.304 29.458C121.159 29.458 121.022 29.5039 120.884 29.5997C120.747 29.6954 120.644 29.8256 120.571 29.9902C120.483 30.1816 120.441 30.4305 120.441 30.7445L120.445 30.7483Z" fill="#585857"/>
<path d="M29.2663 18.1328C25.9741 15.8892 21.7578 16.8081 19.5427 20.1812C17.6942 22.9991 14.9024 23.3475 13.8216 23.3475C10.3003 23.3475 7.89039 20.8665 7.17621 18.2936C7.17239 18.2668 7.16475 18.2438 7.15711 18.2209C7.14948 18.1902 7.14184 18.1634 7.1342 18.1328C6.85158 17.0608 6.78284 16.5477 6.78284 15.4106C6.78284 9.26549 13.073 2.42358 22.1321 2.42358C31.1911 2.42358 36.7136 9.49904 38.0771 13.435C38.058 13.366 38.0351 13.2971 38.0083 13.2244C35.3807 5.53632 28.1014 0 19.5312 0C8.74589 0 0 8.76776 0 19.5839C0 29.2476 6.9547 37.5214 16.6019 37.5214C24.2937 37.5214 29.4649 33.195 31.8366 27.2375C33.1389 23.9792 32.2146 20.1467 29.2624 18.1328H29.2663Z" fill="#1F3A62"/>
<path d="M38.2031 13.8162C37.065 9.97984 31.7182 2.42578 22.1321 2.42578C13.073 2.42578 6.78284 9.26387 6.78284 15.4128C6.78284 16.5499 6.85158 17.063 7.1342 18.135C7.01581 17.6679 6.9547 17.197 6.9547 16.7375C6.9547 10.3397 13.3442 5.90225 19.9169 5.90225C28.8118 5.90225 36.0224 13.1309 36.0224 22.0479C36.0224 29.0392 32.0084 35.0886 26.1804 37.9945C33.6965 35.2685 39.0624 28.0552 39.0624 19.5823C39.0624 17.576 38.7951 15.8071 38.2031 13.8162Z" fill="#C30B30"/>
</g>
<defs>
<clipPath id="clip0_5174_21975">
<rect width="123" height="38" fill="white"/>
</clipPath>
</defs>
</svg>
