<svg width="168" height="17" viewBox="0 0 168 17" fill="none" xmlns="http://www.w3.org/2000/svg">
<path d="M9.9668 1.70312V3.25H0.544922V1.70312H4.28906V0.103516H6.24023V1.70312H9.9668ZM5.25586 3.86523C7.55859 3.86523 9.12305 5.02539 9.14062 6.76562C9.12305 8.50586 7.55859 9.66602 5.25586 9.66602C2.95312 9.66602 1.35352 8.50586 1.35352 6.76562C1.35352 5.02539 2.95312 3.86523 5.25586 3.86523ZM5.25586 5.3418C4.04297 5.3418 3.25195 5.86914 3.25195 6.76562C3.25195 7.66211 4.04297 8.17188 5.25586 8.1543C6.46875 8.17188 7.27734 7.66211 7.27734 6.76562C7.27734 5.86914 6.46875 5.3418 5.25586 5.3418ZM13.0605 0.173828V4.39258H15.2754V5.99219H13.0605V10.123H11.1094V0.173828H13.0605ZM13.0605 10.8613V16.0645H11.1094V12.4258H2.47852V10.8613H13.0605ZM20.2461 0.876953C22.3027 0.859375 23.9199 2.0459 24.3242 3.79492H27.1895V0.173828H29.1406V8.69922H27.1895V5.37695H24.3418C23.9463 7.16113 22.3115 8.36523 20.2461 8.36523C17.8027 8.36523 16.0449 6.80078 16.0449 4.60352C16.0449 2.44141 17.8027 0.859375 20.2461 0.876953ZM20.2461 2.51172C18.875 2.51172 17.9082 3.32031 17.9082 4.60352C17.9082 5.86914 18.875 6.71289 20.2461 6.71289C21.582 6.71289 22.5312 5.86914 22.5488 4.60352C22.5312 3.32031 21.582 2.51172 20.2461 2.51172ZM20.5977 9.4375V11.125H27.1895V9.4375H29.1406V15.8711H18.6641V9.4375H20.5977ZM20.5977 14.2891H27.1895V12.6367H20.5977V14.2891ZM36.959 2.45898C36.9414 4.62109 38.207 6.58984 40.7031 7.38086L39.6484 8.91016C37.917 8.30371 36.7041 7.15234 36.0273 5.64062C35.3242 7.37207 33.9971 8.73438 32.0723 9.40234L31.0352 7.82031C33.6719 6.95898 34.9902 4.83203 34.9902 2.54688V1.03516H36.959V2.45898ZM44.4473 0.173828V9.52539H42.4961V4.84961H39.332V3.25H42.4961V0.173828H44.4473ZM39.0684 9.94727C42.4434 9.94727 44.5 11.0723 44.5 13.0059C44.5 14.9395 42.4434 16.0469 39.0684 16.0469C35.7109 16.0469 33.6543 14.9395 33.6719 13.0059C33.6543 11.0723 35.7109 9.94727 39.0684 9.94727ZM39.0684 11.459C36.8535 11.459 35.6055 12.0039 35.6055 13.0059C35.6055 13.9727 36.8535 14.5176 39.0684 14.5176C41.2832 14.5176 42.5488 13.9727 42.5488 13.0059C42.5488 12.0039 41.2832 11.459 39.0684 11.459ZM55.9922 1.84375V3.37305H52.7051C52.7402 4.74414 53.9971 5.96582 56.3438 6.43164L55.5703 7.94336C53.751 7.56543 52.459 6.71289 51.7559 5.57031C51.0615 6.81836 49.7607 7.75879 47.8887 8.1543L47.0625 6.64258C49.4443 6.17676 50.71 4.83203 50.7363 3.37305H47.4668V1.84375H50.7539V0.208984H52.7051V1.84375H55.9922ZM59.7363 0.191406V16.0469H57.8027V0.191406H59.7363ZM46.4648 8.98047C49.418 8.98047 53.373 8.96289 56.7656 8.54102L56.9062 9.94727C55.5352 10.1846 54.1113 10.334 52.7227 10.4219V15.5723H50.7539V10.5273C49.3037 10.5889 47.9238 10.5977 46.7109 10.5977L46.4648 8.98047ZM74.6562 7.39844V8.94531H69.9453V12.584H76.2734V14.1836H61.7539V12.584H68.0117V8.94531H63.5117V1.35156H74.5332V2.91602H65.4629V7.39844H74.6562ZM85.9375 1.28125V2.86328H84.5312V7.36328C85.1113 7.32812 85.6826 7.27539 86.2363 7.20508V5.78125H88.416V4.41016H86.2363V2.8457H88.416V0.173828H90.3672V9.91211H88.416V7.3457H86.2891L86.3594 8.64648C83.3359 9.13867 79.8203 9.20898 77.2891 9.20898L77.0781 7.5918L78.8711 7.57422V2.86328H77.4824V1.28125H85.9375ZM84.9883 10.1934C88.3809 10.1934 90.4199 11.248 90.4199 13.1289C90.4199 14.957 88.3809 16.0469 84.9883 16.0469C81.6133 16.0469 79.5742 14.957 79.5918 13.1289C79.5742 11.248 81.6133 10.1934 84.9883 10.1934ZM84.9883 11.6875C82.7734 11.6875 81.5254 12.1797 81.5254 13.1289C81.5254 14.043 82.7734 14.5352 84.9883 14.5352C87.2207 14.5352 88.4688 14.043 88.4688 13.1289C88.4688 12.1797 87.2207 11.6875 84.9883 11.6875ZM80.7695 7.55664C81.3848 7.53906 82.0176 7.5127 82.6504 7.48633V2.86328H80.7695V7.55664ZM104.812 0.173828V6.37891H107.168V8.01367H104.812V16.0293H102.861V0.173828H104.812ZM100.611 1.82617C100.611 6.50195 98.6777 10.5977 93.3867 13.1992L92.2793 11.6875C96.1465 9.7627 98.2383 7.05566 98.6426 3.44336H93.1406V1.82617H100.611ZM113.668 4.69141C113.668 7.29297 115.197 10.0352 117.764 11.1074L116.691 12.6543C114.811 11.8457 113.439 10.1758 112.719 8.1543C111.98 10.334 110.592 12.1621 108.729 13.041L107.604 11.5117C110.117 10.3516 111.682 7.39844 111.682 4.69141V3.35547H108.184V1.73828H117.148V3.35547H113.668V4.69141ZM120.893 0.173828V16.0645H118.924V0.173828H120.893ZM136.305 0.191406V12.2148H134.336V10.8262H131.225V9.45508H134.336V0.191406H136.305ZM136.674 14.166V15.748H125.02V11.0547H126.971V14.166H136.674ZM122.91 7.32812C125.846 7.31055 129.783 7.27539 133.158 6.85352L133.264 8.25977C131.954 8.47949 130.601 8.62891 129.256 8.7168V11.7754H127.305V8.82227C125.819 8.88379 124.404 8.89258 123.156 8.89258L122.91 7.32812ZM128.096 0.771484C130.416 0.771484 132.033 1.91406 132.051 3.58398C132.033 5.28906 130.416 6.37891 128.096 6.37891C125.74 6.37891 124.123 5.28906 124.123 3.58398C124.123 1.91406 125.74 0.771484 128.096 0.771484ZM128.096 2.21289C126.83 2.21289 125.969 2.72266 125.969 3.58398C125.969 4.44531 126.83 4.95508 128.096 4.95508C129.309 4.95508 130.17 4.44531 130.188 3.58398C130.17 2.72266 129.309 2.21289 128.096 2.21289ZM152.807 12.584V14.2188H138.287V12.584H144.527V9.45508H139.535V7.9082H141.768V3.16211H139.482V1.58008H151.541V3.16211H149.221V7.9082H151.488V9.45508H146.461V12.584H152.807ZM143.719 7.9082H147.287V3.16211H143.719V7.9082ZM161.68 1.08789V2.65234H156.318V3.84766H161.205V5.32422H156.318V6.67773C158.832 6.66895 160.432 6.61621 162.33 6.32617L162.488 7.87305C160.361 8.20703 158.586 8.22461 155.58 8.22461H154.367V1.08789H161.68ZM166.9 0.173828V8.64648H164.949V5.20117H162.207V3.6543H164.949V0.173828H166.9ZM166.9 9.26172V13.2695H158.393V14.4121H167.41V15.9238H156.441V11.8457H164.949V10.791H156.424V9.26172H166.9Z" fill="#111111"/>
</svg>
